# xmcd
#
# Track frame offsets:
#	150
#	10702
#	17855
#	25650
#	31147
#	39435
#	48782
#	57915
#	63739
#	74620
#	87885
#	102920
#	110847
#	117252
#	123804
#	131110
#	138695
#	146890
#	151695
#	162190
#	169540
#	177390
#	184127
#	190840
#	198677
# Disc length: 2750 seconds
# Revision: 1
# Processed by: cddbd v1.5.2PL0 Copyright (c) Steve Scherf et al.
#
# Submitted via: libkcddb 0.31
#
DISCID=610abc19
DTITLE=Various Artist - SONGS OF RURAL AMERICA
DYEAR=2002
DGENRE=Bluegrass
TTITLE0=PATSY MONTANA - WABASH CANNONBALL
TTITLE1=GOLDEN STATE COWBOYS - BLUE TAIL FLY
TTITLE2=WEAR FAMILY - YELLOW ROSE OF TEXAS
TTITLE3=MAC  WISEMAN - SOURWOOD MOUNTAIN
TTITLE4=HYLO BROWN - SWEEET BETSY FROM PIKE
TTITLE5=STONEY MOUNTIAN BOYS - WRECK OF THE OLD 97
TTITLE6=KENTUCKY BOYS - COTTON FIELDS
TTITLE7=GOLDEN STATE COWBOYS - OLD CHISHOLM TRAIL
TTITLE8=MOUNTIANEERS - BONAPART'S RETREAT
TTITLE9=HYLO BROWN - LITTLE JOHN HENRY
TTITLE10=WEAR FAMILY - BARBARA ALLEN
TTITLE11=TENNESSEE CUT UPS - NINE POUND HAMMER
TTITLE12=GOLDEN STATE COWBOYS - BUFFALO GALS
TTITLE13=MAC-O-CHEE VALLEY FOLKS - JESSE JAMES
TTITLE14=HYLO BROWN - FROGGIE WENT A COURTIN'
TTITLE15=MOUNTAINEERS - GOOBER PEAS
TTITLE16=TENNESSEE CUT UPS - GOTTA TRAVEL ON
TTITLE17=NEVADA SLIM - CRAWDAD SONG
TTITLE18=GOLDEN STATE COWBOYS - RED RIVER VALLEY
TTITLE19=MAC-O-CHEE VALLEY FOLKS - JOHN HARDY
TTITLE20=BLUEGRASS CUT UPS - RED WING
TTITLE21=MAGGIE VALLEY COUNTRY SINGERS - MOUNTAIN DEW
TTITLE22=WEAR FAMILY - GREEN GROW THE LILACS
TTITLE23=HYLO BROWN - LITTLE BROWN JUG
TTITLE24=GOLDEN STATE COWBOYS - HOME ON THE RANGE
EXTD=
EXTT0=
EXTT1=
EXTT2=
EXTT3=
EXTT4=
EXTT5=
EXTT6=
EXTT7=
EXTT8=
EXTT9=
EXTT10=
EXTT11=
EXTT12=
EXTT13=
EXTT14=
EXTT15=
EXTT16=
EXTT17=
EXTT18=
EXTT19=
EXTT20=
EXTT21=
EXTT22=
EXTT23=
EXTT24=
PLAYORDER=
